<mxfile host="app.diagrams.net" modified="2021-07-01T00:06:42.959Z" agent="5.0 (Windows NT 10.0; Win64; x64) AppleWebKit/537.36 (KHTML, like Gecko) Chrome/91.0.4472.124 Safari/537.36" etag="ySomd4-NtR6pcGIw9Sef" version="14.8.3" type="github">
  <diagram id="lASa3ghBS5Gd1QjK2SNY" name="Page-1">
    <mxGraphModel dx="1102" dy="582" grid="1" gridSize="10" guides="1" tooltips="1" connect="1" arrows="1" fold="1" page="1" pageScale="1" pageWidth="827" pageHeight="1169" math="0" shadow="0">
      <root>
        <mxCell id="0" />
        <mxCell id="1" parent="0" />
        <mxCell id="Uqeow2bHg23IDJBwXBiP-1" value="" style="ellipse;html=1;shape=startState;fillColor=#000000;strokeColor=#ff0000;" vertex="1" parent="1">
          <mxGeometry x="384" y="20" width="30" height="30" as="geometry" />
        </mxCell>
        <mxCell id="Uqeow2bHg23IDJBwXBiP-2" value="" style="edgeStyle=orthogonalEdgeStyle;html=1;verticalAlign=bottom;endArrow=open;endSize=8;strokeColor=#ff0000;" edge="1" source="Uqeow2bHg23IDJBwXBiP-1" parent="1">
          <mxGeometry relative="1" as="geometry">
            <mxPoint x="399" y="110" as="targetPoint" />
          </mxGeometry>
        </mxCell>
        <mxCell id="Uqeow2bHg23IDJBwXBiP-3" value="درخواست مشتری" style="rounded=1;whiteSpace=wrap;html=1;" vertex="1" parent="1">
          <mxGeometry x="339" y="110" width="120" height="50" as="geometry" />
        </mxCell>
        <mxCell id="Uqeow2bHg23IDJBwXBiP-4" value="" style="endArrow=classic;html=1;" edge="1" parent="1">
          <mxGeometry width="50" height="50" relative="1" as="geometry">
            <mxPoint x="400" y="160" as="sourcePoint" />
            <mxPoint x="400" y="220" as="targetPoint" />
          </mxGeometry>
        </mxCell>
        <mxCell id="Uqeow2bHg23IDJBwXBiP-5" value="دریافت و بررسی درخواست" style="rounded=1;whiteSpace=wrap;html=1;" vertex="1" parent="1">
          <mxGeometry x="339" y="220" width="120" height="50" as="geometry" />
        </mxCell>
        <mxCell id="Uqeow2bHg23IDJBwXBiP-6" value="" style="endArrow=classic;html=1;" edge="1" parent="1">
          <mxGeometry width="50" height="50" relative="1" as="geometry">
            <mxPoint x="400" y="270" as="sourcePoint" />
            <mxPoint x="400" y="340" as="targetPoint" />
          </mxGeometry>
        </mxCell>
        <mxCell id="Uqeow2bHg23IDJBwXBiP-7" value="" style="rhombus;whiteSpace=wrap;html=1;" vertex="1" parent="1">
          <mxGeometry x="359" y="340" width="80" height="80" as="geometry" />
        </mxCell>
        <mxCell id="Uqeow2bHg23IDJBwXBiP-8" value="فاکتور&amp;nbsp; موجود نیست" style="endArrow=classic;html=1;" edge="1" parent="1" target="Uqeow2bHg23IDJBwXBiP-9">
          <mxGeometry width="50" height="50" relative="1" as="geometry">
            <mxPoint x="439" y="380" as="sourcePoint" />
            <mxPoint x="500" y="380" as="targetPoint" />
          </mxGeometry>
        </mxCell>
        <mxCell id="Uqeow2bHg23IDJBwXBiP-9" value="تکمیل فرایند خرید" style="rounded=1;whiteSpace=wrap;html=1;" vertex="1" parent="1">
          <mxGeometry x="550" y="355" width="120" height="50" as="geometry" />
        </mxCell>
        <mxCell id="Uqeow2bHg23IDJBwXBiP-10" value="فاکتور موجود است" style="endArrow=classic;html=1;" edge="1" parent="1" target="Uqeow2bHg23IDJBwXBiP-14">
          <mxGeometry width="50" height="50" relative="1" as="geometry">
            <mxPoint x="400" y="420" as="sourcePoint" />
            <mxPoint x="400" y="480" as="targetPoint" />
          </mxGeometry>
        </mxCell>
        <mxCell id="Uqeow2bHg23IDJBwXBiP-14" value="نمایش فاکتور" style="rounded=1;whiteSpace=wrap;html=1;" vertex="1" parent="1">
          <mxGeometry x="339" y="480" width="120" height="40" as="geometry" />
        </mxCell>
        <mxCell id="Uqeow2bHg23IDJBwXBiP-15" value="" style="endArrow=classic;html=1;" edge="1" parent="1" target="Uqeow2bHg23IDJBwXBiP-16">
          <mxGeometry width="50" height="50" relative="1" as="geometry">
            <mxPoint x="400" y="520" as="sourcePoint" />
            <mxPoint x="400" y="570" as="targetPoint" />
          </mxGeometry>
        </mxCell>
        <mxCell id="Uqeow2bHg23IDJBwXBiP-16" value="" style="ellipse;html=1;shape=endState;fillColor=#000000;strokeColor=#ff0000;" vertex="1" parent="1">
          <mxGeometry x="385" y="555" width="30" height="30" as="geometry" />
        </mxCell>
      </root>
    </mxGraphModel>
  </diagram>
</mxfile>
